<?xml version="1.0" encoding="UTF-8"?>
<svg width="400" height="400" version="1.2" viewBox="266.4 150.1 400 400" xml:space="preserve" xmlns="http://www.w3.org/2000/svg">

<rect x="267.23" y="150.93" width="398.34" height="398.34" fill="#fff"/>
<path d="m276.7 165.7" fill="#58595b"/>
<polyline points="296.7 169.3 272.3 169.3 251.8 169.2" fill="none"/>
<g transform="matrix(.875 0 0 .875 144.08 43.762)" fill="#58595b" stroke-width="5.9084"><path d="m327.26 242.27v249.93c0 9.4535-0.59084 17.725-1.1817 24.815-0.59085 7.0901-2.9542 12.999-5.9084 18.316-2.9542 4.7267-7.0901 8.8626-12.999 11.226-5.9084 2.3634-13.589 3.545-24.225 3.545-6.4993 0-11.817-0.59084-16.544-1.7725v-22.452c7.0901 0.59084 13.589 1.1817 17.725 0 4.7267-0.59084 8.2718-2.3634 10.635-4.7267 2.3634-2.3634 4.1359-5.9084 5.3176-10.044 1.1817-4.1359 1.7725-9.4535 1.7725-14.771v-232.79z"/><path d="m344.39 263.54v-21.27h32.496v-34.86c0-17.725 3.5451-31.315 10.635-41.95 7.0901-10.044 18.907-15.362 36.041-15.362 4.1359 0 7.6809 0 11.226 0.59084 3.545 0 7.0901 0.59084 10.044 1.1817v23.634c-5.9084-1.1817-10.635-2.3634-15.362-2.3634-6.4993 0-11.817 1.1817-15.362 3.545s-6.4993 5.3176-8.2718 9.4535-2.9542 8.2718-2.9542 13.589c-0.59084 4.7267-0.59084 10.044-0.59084 15.362v27.179h42.541v21.27h-42.541v199.11h-25.406v-199.11z"/></g>
</svg>
